<svg id="Layer_1_copy" data-name="Layer 1 copy" xmlns="http://www.w3.org/2000/svg" viewBox="0 0 25 25"><defs><style>.cls-1{fill:#e5c800;}</style></defs><title>cart</title><path class="cls-1" d="M24.76,20.1,7.59,20c-.22,0-.35-.29-.23-.52L8.14,18a.4.4,0,0,0,0-.26l-.25-1.17A.43.43,0,0,1,8.23,16l14.73-2c.86,0,1.32-.41,1.32-1.14V4.2a.39.39,0,0,0-.37-.43h-.15a.4.4,0,0,0-.34.43l.08,8.08a1,1,0,0,1-1.1.83L7.95,14.85a.37.37,0,0,1-.39-.32L4.49.63A1,1,0,0,0,3.67,0L.35,0A.37.37,0,0,0,0,.33H0A.42.42,0,0,0,.36.9h3a.38.38,0,0,1,.35.32L7.18,17.66a.5.5,0,0,1,0,.32L6.07,20.23a.43.43,0,0,0,.31.64H24.64a.4.4,0,0,0,.36-.43h0C25,20.26,24.92,20.1,24.76,20.1Z"/><circle class="cls-1" cx="8.63" cy="23.15" r="1.8"/><circle class="cls-1" cx="21.9" cy="23.15" r="1.8"/></svg>